<svg xmlns="http://www.w3.org/2000/svg" xmlns:xlink="http://www.w3.org/1999/xlink" version="1.1" x="0px" y="0px" viewBox="0 0 120 24" enable-background="new 0 0 120 24" xml:space="preserve" role="img" aria-labelledby="subway-logo">
<g>
	<path fill="#F2B700" d="M19.6,16c0,2.95-1.7,4.75-4.4,5.3c-0.75,0.15-2,0.15-2.85,0.15l-6.55-0.05v2.5L0,19.15l5.8-4.75v2.5l7.35,0.05   c0.7,0,1-0.4,1-0.8c0-0.75-0.7-1-2.8-2c-3.35-1.6-5.95-2.75-5.95-6.4c0-2.85,2.05-4.8,5.05-5.2c0.6-0.1,1.75-0.1,2.45-0.1   c1.5,0,5.7,0.1,5.7,0.1v4.55L11.7,7c-0.6,0-0.9,0.4-0.9,0.8c0,0.6,0.5,0.85,2.45,1.75C17.35,11.45,19.6,12.5,19.6,16z M30.45,15.65   c0,0.85-0.75,1.55-2.1,1.55c-1.45,0-2.1-0.7-2.1-1.55V2.5h-5.65v13.6c0,3,2.5,5.85,7.7,5.85c4.95,0,7.7-2.8,7.7-5.85V2.5h-5.55V15.65z    M53.35,15.75c0,3.75-2.55,5.8-6.25,5.8h-9.35V2.5h9c4.05,0,6.1,2.25,6.1,5.2c0,1.5-0.7,2.8-2.1,3.75C52.4,12.35,53.35,13.75,53.35,15.75z    M43.3,10.05l2.6,0c1,0,1.45-0.7,1.45-1.7c0-1.05-0.45-1.7-1.45-1.7h-2.6V10.05z M47.7,15.5c0-1.15-0.55-1.8-1.55-1.8h-2.85v3.6h2.85   C47.2,17.3,47.7,16.6,47.7,15.5z"/>
	<g>
		<path fill="#008938" d="M72.05,2.5h5.55v13.4c0,3.1-2.2,5.9-6.85,5.9c-2,0-3.55-0.6-4.65-1.5c-1.1,0.9-2.6,1.5-4.45,1.5    c-4.95,0-7-2.8-7-5.9V2.5h5.55v13.3c0,0.55,0.3,1.25,1.55,1.25c1.25,0,1.6-0.65,1.6-1.25V2.5h5.55v13.3c0,0.55,0.3,1.25,1.55,1.25    c1.25,0,1.6-0.65,1.6-1.25V2.5z M101.5,10L101.5,2.5h-5.5v8c0,2.65,1.8,4.65,4.85,5.5l0,5.5h5.65V16c3.1-0.85,4.8-2.85,4.8-5.5v-2.95    c0-0.3,0.15-0.45,0.45-0.45l2.45,0v2.4L120,4.75L114.2,0v2.4h-3.85c-3.25,0-4.6,1.9-4.6,4.6v3c0,0.7-0.5,1.55-2.15,1.55    C102,11.55,101.5,10.7,101.5,10z M94.6,7.95v13.6h-5.55V16h-4.2l0,5.5h-5.55V7.95c0-3.4,2.8-6,7.65-6C91.75,1.95,94.6,4.55,94.6,7.95z     M89.05,11.65l0-3.4c0-0.9-0.65-1.55-2.1-1.55c-1.5,0-2.1,0.65-2.1,1.55v3.4H89.05z"/>
	</g>
</g>
</svg> 